<svg width="227" height="227" viewBox="0 0 227 227" fill="none" xmlns="http://www.w3.org/2000/svg">
<path id="Soft Star" d="M110.471 2.69065C110.897 -0.896883 116.103 -0.896883 116.529 2.69065L120.1 32.7868C124.711 71.649 155.351 102.289 194.213 106.9L224.309 110.471C227.897 110.897 227.897 116.103 224.309 116.529L194.213 120.1C155.351 124.711 124.711 155.351 120.1 194.213L116.529 224.309C116.103 227.897 110.897 227.897 110.471 224.309L106.9 194.213C102.289 155.351 71.649 124.711 32.7868 120.1L2.69065 116.529C-0.896883 116.103 -0.896883 110.897 2.69065 110.471L32.7868 106.9C71.649 102.289 102.289 71.649 106.9 32.7868L110.471 2.69065Z" fill="#F8841D"/>
</svg>
